<?xml version="1.0" encoding="UTF-8" standalone="no"?>
<!-- Generator: Adobe Illustrator 15.1.0, SVG Export Plug-In . SVG Version: 6.00 Build 0)  -->

<svg
   xmlns:dc="http://purl.org/dc/elements/1.1/"
   xmlns:cc="http://creativecommons.org/ns#"
   xmlns:rdf="http://www.w3.org/1999/02/22-rdf-syntax-ns#"
   xmlns:svg="http://www.w3.org/2000/svg"
   xmlns="http://www.w3.org/2000/svg"
   xmlns:sodipodi="http://sodipodi.sourceforge.net/DTD/sodipodi-0.dtd"
   xmlns:inkscape="http://www.inkscape.org/namespaces/inkscape"
   version="1.0"
   x="0px"
   y="0px"
   width="48"
   height="48"
   viewBox="0 0 47.999997 47.999991"
   enable-background="new 0 0 540 122.523"
   xml:space="preserve"
   id="svg2"
   inkscape:version="0.48.0 r9654"
   sodipodi:docname="WordPress_logo2.svg"
   inkscape:export-filename="W:\web\sites\minilib.org\html\wp\wp-content\themes\metallic\images\logo.png"
   inkscape:export-xdpi="120"
   inkscape:export-ydpi="120"><metadata
   id="metadata38"><rdf:RDF><cc:Work
       rdf:about=""><dc:format>image/svg+xml</dc:format><dc:type
         rdf:resource="http://purl.org/dc/dcmitype/StillImage" /><dc:title></dc:title><cc:license
         rdf:resource="http://creativecommons.org/licenses/publicdomain/" /></cc:Work><cc:License
       rdf:about="http://creativecommons.org/licenses/publicdomain/"><cc:permits
         rdf:resource="http://creativecommons.org/ns#Reproduction" /><cc:permits
         rdf:resource="http://creativecommons.org/ns#Distribution" /><cc:permits
         rdf:resource="http://creativecommons.org/ns#DerivativeWorks" /></cc:License></rdf:RDF></metadata><defs
   id="defs36"><filter
     id="filter3305"
     inkscape:label="Drop shadow"
     width="1.5"
     height="1.5"
     x="-.25"
     y="-.25"><feGaussianBlur
       id="feGaussianBlur3307"
       in="SourceAlpha"
       stdDeviation="5"
       result="blur" /><feColorMatrix
       id="feColorMatrix3309"
       result="bluralpha"
       type="matrix"
       values="-1 0 0 0 1 0 -1 0 0 1 0 0 -1 0 1 0 0 0 0.8 0 " /><feOffset
       id="feOffset3311"
       in="bluralpha"
       dx="0"
       dy="0"
       result="offsetBlur" /><feMerge
       id="feMerge3313"><feMergeNode
         id="feMergeNode3315"
         in="offsetBlur" /><feMergeNode
         id="feMergeNode3317"
         in="SourceGraphic" /></feMerge></filter></defs><sodipodi:namedview
   pagecolor="#000000"
   bordercolor="#666666"
   borderopacity="1"
   objecttolerance="10"
   gridtolerance="10"
   guidetolerance="10"
   inkscape:pageopacity="0"
   inkscape:pageshadow="2"
   inkscape:window-width="1440"
   inkscape:window-height="844"
   id="namedview34"
   showgrid="false"
   inkscape:zoom="7.3220479"
   inkscape:cx="45.997768"
   inkscape:cy="13.705135"
   inkscape:window-x="-4"
   inkscape:window-y="-4"
   inkscape:window-maximized="1"
   inkscape:current-layer="g22" />
<g
   id="Layer_1"
   transform="translate(0,-74.522697)">
</g>
<g
   id="Layer_2"
   transform="translate(0,-74.522697)">
	<g
   id="g6">
		
		
		
		
		
		
		
		<g
   id="g22"
   transform="matrix(0.3735119,0,0,0.3735119,1.2762812,75.847572)"
   style="stroke:#000000;stroke-width:0.26772907000000001;stroke-miterlimit:4;stroke-dasharray:none;fill:#ffffff"
   inkscape:export-xdpi="132.2923"
   inkscape:export-ydpi="132.2923">
			
			
			
			
			<g
   id="g3144"
   style="stroke:none;filter:url(#filter3305)"
   inkscape:export-xdpi="132.2923"
   inkscape:export-ydpi="132.2923"><path
     style="fill:#ffffff;stroke:none;stroke-width:0.26772907000000001;stroke-miterlimit:4;stroke-dasharray:none"
     inkscape:connector-curvature="0"
     id="path24"
     d="m 8.708,61.26 c 0,20.802 12.089,38.779 29.619,47.298 L 13.258,39.872 c -2.916,6.536 -4.55,13.769 -4.55,21.388 z" /><path
     style="fill:#ffffff;stroke:none;stroke-width:0.26772907000000001;stroke-miterlimit:4;stroke-dasharray:none"
     inkscape:connector-curvature="0"
     id="path26"
     d="m 96.74,58.608 c 0,-6.495 -2.333,-10.993 -4.334,-14.494 -2.664,-4.329 -5.161,-7.995 -5.161,-12.324 0,-4.831 3.664,-9.328 8.825,-9.328 0.233,0 0.454,0.029 0.681,0.042 C 87.401,13.938 74.944,8.708 61.262,8.708 c -18.36,0 -34.513,9.42 -43.91,23.688 1.233,0.037 2.395,0.063 3.382,0.063 5.497,0 14.006,-0.667 14.006,-0.667 2.833,-0.167 3.167,3.994 0.337,4.329 0,0 -2.847,0.335 -6.015,0.501 L 48.2,93.547 59.701,59.054 51.513,36.62 c -2.83,-0.166 -5.511,-0.501 -5.511,-0.501 -2.832,-0.166 -2.5,-4.496 0.332,-4.329 0,0 8.679,0.667 13.843,0.667 5.496,0 14.006,-0.667 14.006,-0.667 2.835,-0.167 3.168,3.994 0.337,4.329 0,0 -2.853,0.335 -6.015,0.501 l 18.992,56.494 5.242,-17.517 c 2.272,-7.269 4.001,-12.49 4.001,-16.989 z" /><path
     style="fill:#ffffff;stroke:none;stroke-width:0.26772907000000001;stroke-miterlimit:4;stroke-dasharray:none"
     inkscape:connector-curvature="0"
     id="path28"
     d="m 62.184,65.857 -15.768,45.819 c 4.708,1.384 9.687,2.141 14.846,2.141 6.12,0 11.989,-1.058 17.452,-2.979 -0.141,-0.225 -0.269,-0.464 -0.374,-0.724 L 62.184,65.857 z" /><path
     style="fill:#ffffff;stroke:none;stroke-width:0.26772907000000001;stroke-miterlimit:4;stroke-dasharray:none"
     inkscape:connector-curvature="0"
     id="path30"
     d="m 107.376,36.046 c 0.226,1.674 0.354,3.471 0.354,5.404 0,5.333 -0.996,11.328 -3.996,18.824 l -16.053,46.413 c 15.624,-9.111 26.133,-26.038 26.133,-45.426 0.001,-9.137 -2.333,-17.729 -6.438,-25.215 z" /><path
     style="fill:#ffffff;stroke:none;stroke-width:0.26772907000000001;stroke-miterlimit:4;stroke-dasharray:none"
     inkscape:connector-curvature="0"
     id="path32"
     d="M 61.262,0 C 27.483,0 0,27.481 0,61.26 c 0,33.783 27.483,61.263 61.262,61.263 33.778,0 61.265,-27.48 61.265,-61.263 C 122.526,27.481 95.04,0 61.262,0 z m 0,119.715 c -32.23,0 -58.453,-26.223 -58.453,-58.455 0,-32.23 26.222,-58.451 58.453,-58.451 32.229,0 58.45,26.221 58.45,58.451 0,32.232 -26.221,58.455 -58.45,58.455 z" /></g>
		</g>
	</g>
</g>
</svg>